PathFileType	4	(X/Y/Z)	C:\Users\WrightLab\Desktop\Jo\P1_boxCal18.trc
DataRate	CameraRate	NumFrames	NumMarkers	Units	OrigDataRate	OrigDataStartFrame	OrigNumFrames
100.00	100.00	       28	19	mm	100.00	1	       559
Frame#	Time	Headset_Front			Headset_Back			Headset_Left			Headset_Right			Left_Shoulder			Right_Shoulder			Sternum			C7			Left Elbow			Right Elbow			Left Wrist			Right Wrist			Left ASIS			Right ASIS			S2			Left Knee			Right Knee			Left Ankle			Right Ankle			
		X1	Y1	Z1	X2	Y2	Z2	X3	Y3	Z3	X4	Y4	Z4	X5	Y5	Z5	X6	Y6	Z6	X7	Y7	Z7	X8	Y8	Z8	X9	Y9	Z9	X10	Y10	Z10	X11	Y11	Z11	X12	Y12	Z12	X13	Y13	Z13	X14	Y14	Z14	X15	Y15	Z15	X16	Y16	Z16	X17	Y17	Z17	X18	Y18	Z18	X19	Y19	Z19	

1	0.000				-564.84009	64.19669	-1383.89954							-103.86907	1226.29639	-1450.92358										-7.53039	909.71735	-1485.91248				27.17337	727.57977	-1387.10181				-224.68800	825.36768	-1344.33508	-420.34424	822.16150	-1395.08801	-243.74045	848.09015	-1660.67834	-103.43268	400.91406	-1535.62170	-507.45728	419.68771	-1441.72961	-65.13215	68.27576	-1685.03516				
2	0.010				-565.17932	61.55819	-1382.45752							-110.38068	1226.89880	-1444.08167										-13.06244	910.87372	-1480.35901				22.62389	729.56616	-1381.43640				-231.07169	827.51715	-1331.23718	-426.73474	822.89862	-1387.06042	-249.40482	847.88721	-1654.60034	-107.05725	400.15195	-1530.53430	-511.47302	417.09134	-1439.08008	-64.75736	70.65421	-1683.66040				
3	0.020				-566.33795	58.81942	-1383.29956							-116.49882	1228.61426	-1439.90686										-19.33018	911.49573	-1474.18152				17.52473	731.54797	-1375.40820				-237.10669	826.93829	-1330.60022	-432.71524	823.17572	-1381.77759	-255.33519	848.02948	-1648.86072	-110.49574	400.02426	-1524.54846	-516.53870	413.69907	-1439.88684	-65.36228	73.81822	-1683.02258				
4	0.030				-567.39648	54.98034	-1380.95435							-122.66393	1230.34607	-1435.68591										-26.82583	912.91779	-1467.52222				13.00537	733.33795	-1370.96533				-242.98982	826.01331	-1323.47705	-438.41940	821.98798	-1376.66870	-261.30893	848.11102	-1642.78345	-115.11284	400.51410	-1519.96863	-519.86493	417.61530	-1428.59619	-65.27772	77.09698	-1681.41138				
5	0.040				-569.00830	57.12034	-1376.56299							-128.83487	1232.13806	-1431.22583										-31.06238	914.95630	-1464.76892				7.86117	735.47241	-1364.69409				-249.33122	825.36285	-1322.16858	-445.64886	824.05743	-1368.38208	-267.39310	848.61157	-1636.68164	-119.83745	400.41064	-1511.83704	-523.99420	416.66916	-1425.15186	-66.04545	79.49120	-1678.16492				
6	0.050				-570.40936	57.18059	-1372.88708							-135.67697	1233.69629	-1425.66003										-37.02374	916.74426	-1460.21289				2.68692	737.56006	-1358.71826				-256.65210	828.60889	-1308.75073	-451.50833	825.25330	-1365.81152	-273.55310	849.46344	-1631.08142	-124.25294	400.93195	-1504.44861	-529.35797	415.54172	-1423.09326	-67.40469	83.63305	-1675.92737				
7	0.060				-571.35156	57.89948	-1370.63281							-141.90546	1234.05444	-1416.95544										-43.45195	918.51093	-1455.08142				-2.76768	739.79169	-1352.96326				-262.57861	829.19617	-1305.77271	-457.67715	825.72046	-1359.04150	-279.70593	850.19275	-1624.75342	-128.93437	401.03757	-1496.02319	-533.17944	417.51071	-1413.66956	-68.10302	88.24467	-1672.65625				
8	0.070				-571.65308	56.91004	-1371.83813							-148.52068	1236.25098	-1412.47021										-49.34271	920.43158	-1449.86292				-7.61793	741.63538	-1347.05994				-270.05905	831.19702	-1299.32324	-464.09924	826.19476	-1353.61902	-285.88815	851.22394	-1619.03748	-133.44002	401.34222	-1487.77710	-537.49866	418.82901	-1409.59473	-68.98225	92.94653	-1669.69263				
9	0.080				-572.52014	53.77359	-1370.04810							-155.27151	1236.96497	-1404.02209										-55.27679	922.40356	-1444.70789				-12.47996	744.25629	-1341.22632				-276.15970	831.85718	-1291.48889	-469.96396	827.30304	-1351.12976	-292.12610	852.45673	-1613.63818	-139.25810	402.41367	-1477.45886	-543.42938	420.39310	-1406.65332	-69.79847	99.32541	-1665.64490				
10	0.090				-573.89648	54.33344	-1366.30542							-161.49162	1238.95557	-1398.79626										-61.28176	924.56000	-1439.68311				-17.99705	746.12225	-1334.93311				-283.24695	831.75909	-1291.40515	-476.93445	830.07513	-1341.99805	-298.05243	853.99524	-1607.76404	-143.05437	403.10849	-1467.66467	-546.46521	422.48080	-1397.56287	-72.43669	102.31890	-1659.01208				
11	0.100				-574.52252	52.89043	-1368.98840							-168.43750	1240.75317	-1392.80286										-67.00137	926.63849	-1433.84277				-23.34987	747.95374	-1328.21057				-289.72168	834.86688	-1278.39966	-483.44498	831.65100	-1337.12122	-303.97110	854.58978	-1600.83252	-148.49843	404.06342	-1456.47510	-553.75360	421.24722	-1397.13562	-72.56489	108.98843	-1655.12500				
12	0.110				-576.24890	51.96019	-1367.98071							-175.22998	1242.00293	-1385.41992										-72.93932	928.94861	-1428.76746				-29.06711	749.56067	-1321.83923				-297.89618	835.38782	-1275.00232	-490.40009	832.73859	-1332.17847	-309.77939	856.44849	-1595.43311	-153.01253	405.24069	-1444.88745	-558.71625	423.59802	-1389.71912	-74.97952	113.75546	-1646.37073				
13	0.120				-576.85046	50.81105	-1370.62500							-182.29865	1244.59131	-1381.57959										-78.95961	931.04694	-1422.49316				-34.50053	751.84241	-1315.56946				-304.70471	837.92908	-1268.84290	-497.25461	833.62494	-1326.29358	-315.47928	857.74683	-1589.39197	-157.61293	406.05087	-1433.75208	-565.30511	423.46432	-1389.64465	-76.25726	118.81312	-1639.38293				
14	0.130				-577.60883	49.38560	-1373.96533							-188.50990	1246.49365	-1376.81042										-84.62476	933.39130	-1416.68787				-40.12321	753.98834	-1309.00134				-311.52972	841.07208	-1259.27661	-503.94391	835.66388	-1322.13123	-321.20410	858.82770	-1583.16602	-162.94611	407.34601	-1420.78174	-569.59375	424.42328	-1385.46765	-78.99335	124.05231	-1629.91553				
15	0.140				-578.42487	49.83128	-1372.72205							-194.49059	1247.51965	-1370.24255										-90.18441	935.39752	-1410.76929				-45.73371	755.29425	-1301.73315				-319.85608	841.89246	-1256.67810	-512.59924	838.29242	-1310.74182	-326.81808	860.66467	-1577.83252	-167.28279	408.34698	-1407.76648	-575.66614	423.25381	-1386.53223	-80.42916	129.15903	-1621.22937				
16	0.150				-579.29156	49.63884	-1371.64905							-200.79436	1248.14465	-1363.05579										-96.55516	936.60675	-1402.73145				-51.09809	757.60529	-1295.26660				-325.95276	843.54871	-1251.55505	-519.06415	838.91449	-1311.27002	-332.42850	861.68011	-1571.52283	-171.69843	409.20532	-1394.53357	-579.83765	424.33646	-1379.41296	-83.93700	135.23650	-1612.10059				
17	0.160	-476.48688	1358.45288	-1186.34314	-580.15417	48.65126	-1369.20227							-207.29556	1249.39941	-1357.81213										-102.29981	937.01013	-1395.03174				-57.01442	759.83917	-1289.71448				-332.89941	845.32837	-1243.30444	-525.15527	841.00995	-1306.91602	-338.00519	862.42480	-1565.23474	-177.21448	410.20947	-1379.73108	-585.35297	421.89096	-1382.45117	-88.62177	139.85190	-1601.25500				
18	0.170	-481.57333	1359.21216	-1180.64160	-580.90985	49.68952	-1367.66895							-213.16515	1250.37793	-1352.51965										-107.84762	938.57068	-1389.41541				-62.60266	761.30524	-1281.81238				-341.15860	845.87317	-1240.50110	-533.18762	843.57068	-1297.86865	-343.64441	863.45868	-1560.05054	-182.01102	410.30771	-1364.58459	-590.28741	423.04807	-1373.93384	-93.73275	144.85889	-1590.04346				
19	0.180	-486.77762	1359.52710	-1174.89905	-581.58643	49.17110	-1365.73633							-219.13829	1250.77783	-1345.84021										-114.35370	939.16626	-1382.45435				-68.30395	762.80176	-1274.69385				-346.84982	848.00354	-1231.88330	-539.94714	844.69000	-1292.29907	-349.23325	864.12579	-1554.17761	-186.84702	410.92941	-1348.38586	-594.85388	417.89319	-1382.60779	-98.86268	150.81984	-1580.14087				
20	0.190	-491.85757	1360.06250	-1169.24622	-581.69073	48.81950	-1366.14954							-224.82732	1252.28638	-1342.65698										-119.37903	940.38947	-1376.88379				-74.17023	764.29926	-1268.16455				-353.98300	846.94391	-1230.06323	-546.02039	846.71924	-1283.05347	-354.67368	864.73669	-1548.79309	-191.90387	411.98013	-1332.90234	-597.66125	419.63654	-1373.75696	-106.26719	155.59186	-1568.23328				
21	0.200	-496.96875	1360.31604	-1163.65918	-581.71375	48.62051	-1366.20532							-229.73763	1252.10413	-1335.62512	-594.22876	1232.73572	-1419.66711							-125.11716	940.17615	-1369.77600				-79.85217	764.67950	-1259.66687				-359.44568	850.34320	-1218.84485	-551.99524	845.28497	-1283.17944	-360.05060	865.42279	-1543.94739	-196.98747	413.95386	-1317.90771	-602.74445	418.00415	-1376.82690	-114.67827	162.09329	-1555.39404				
22	0.210	-502.75995	1361.61389	-1157.06042	-581.74878	48.45099	-1366.32910							-235.19908	1253.55212	-1332.62061	-600.01929	1232.96912	-1412.46960							-131.33376	940.61066	-1363.61682				-85.95477	765.83527	-1253.14746				-366.03571	851.63330	-1211.22791	-556.80414	847.08966	-1271.92041	-365.25012	865.98773	-1538.62134	-202.00517	414.18771	-1303.57178	-605.93048	415.13721	-1378.04175	-122.68142	169.07195	-1543.58179				
23	0.220	-506.92249	1361.93945	-1151.28955	-581.81384	48.30638	-1366.60803							-240.36433	1253.77917	-1326.52942	-605.56384	1233.83777	-1407.02295							-136.99413	940.75562	-1357.83118				-92.03365	766.33899	-1245.48865				-370.81058	852.09009	-1205.88416	-563.25464	846.02332	-1274.44385	-370.34628	866.76355	-1533.87085	-209.06709	416.15073	-1288.11255	-609.56635	416.83218	-1367.12329	-131.32303	172.85924	-1532.85083				
24	0.230	-511.86328	1362.42712	-1145.63330	-581.78760	48.32368	-1366.48340							-245.25423	1254.79724	-1322.59180	-611.18652	1234.88062	-1401.53589							-142.92287	940.47467	-1351.29187				-98.57697	767.66772	-1239.30017				-375.76047	852.60645	-1199.20886	-568.69171	847.01996	-1265.17151	-375.30081	867.19916	-1528.68469	-215.11052	418.67535	-1273.97778	-612.55237	413.21255	-1376.24902	-139.94560	175.28403	-1520.14600				
25	0.240	-517.12573	1363.78503	-1140.44885	-581.37268	46.67779	-1368.78955							-250.10413	1255.75354	-1318.33179	-616.69403	1234.69385	-1393.41760							-148.72574	941.15222	-1345.89038				-104.63049	768.88635	-1233.02747				-380.53192	853.37390	-1194.44653	-573.84192	849.83911	-1261.53418	-380.02029	868.01959	-1523.37329	-221.17686	420.32584	-1259.54907	-614.41010	412.62155	-1378.17712	-148.12929	177.48128	-1507.44617				
26	0.250	-520.27478	1363.00928	-1134.47339	-581.40033	46.67217	-1368.92432							-255.24437	1257.25525	-1314.96326	-621.92932	1235.61865	-1387.81311							-154.42821	941.33722	-1340.25537				-111.17440	768.72223	-1224.92798				-384.91885	853.69733	-1190.56726	-577.92645	849.09924	-1252.82080	-384.56427	869.35132	-1518.68323	-228.08229	423.45831	-1245.98950	-617.51416	415.01260	-1368.15149	-156.94066	179.85300	-1495.21423				
27	0.260	-525.22424	1364.68469	-1128.17236	-580.77551	45.15040	-1372.50134							-259.75165	1257.90430	-1309.44507	-626.79102	1235.78442	-1380.78333							-162.03581	940.62500	-1332.97986				-117.61758	769.24927	-1218.07605				-389.47342	853.50525	-1187.34131	-580.75854	847.02106	-1253.85388	-388.77142	870.31201	-1512.85400	-235.39305	426.20041	-1233.39819	-618.58948	412.34418	-1370.88403	-167.14699	182.67365	-1479.92749				
28	0.270	-528.33502	1365.14355	-1122.85388	-581.06140	46.47303	-1371.76721							-264.47540	1258.89917	-1304.41028	-631.58301	1235.66113	-1372.94775	-597.08557	1397.07007	-1245.89124				-166.87210	941.95197	-1328.70630				-124.00647	770.62207	-1213.00464				-392.10251	856.15247	-1176.73511	-584.76239	849.28064	-1241.60852	-392.78424	871.67255	-1507.60767	-240.93185	428.67365	-1220.77148	-621.29712	409.35419	-1370.87061	-177.80406	183.29489	-1464.99072				
